<svg id="Слой_1" data-name="Слой 1" xmlns="http://www.w3.org/2000/svg" viewBox="0 0 150 261.5"><defs><style>.cls-1{fill:none;stroke:#000;stroke-miterlimit:10;stroke-width:15px;}</style></defs><title>ic_logo_black</title><path d="M160,39.25v231.5H40V39.25H160m5-15H35a10,10,0,0,0-10,10v241.5a10,10,0,0,0,10,10H165a10,10,0,0,0,10-10V34.25a10,10,0,0,0-10-10Z" transform="translate(-25 -24.25)"/><rect y="226.5" width="150" height="25"/><circle class="cls-1" cx="108.3" cy="132.72" r="27.5" transform="translate(-87.19 125.06) rotate(-56.34)"/><rect x="70.94" y="152.41" width="15" height="50.29" rx="5" ry="5" transform="translate(86.56 -37.96) rotate(33.66)"/><rect y="9.8" width="150" height="15"/></svg>