<svg id="Слой_1" data-name="Слой 1" xmlns="http://www.w3.org/2000/svg" viewBox="0 0 150 261.5"><defs><style>.cls-1{fill:#9e9e9e;}.cls-2{fill:none;stroke:#9e9e9e;stroke-miterlimit:10;stroke-width:15px;}</style></defs><title>ic_logo_grey</title><path class="cls-1" d="M135,15V246.5H15V15H135m5-15H10A10,10,0,0,0,0,10V251.5a10,10,0,0,0,10,10H140a10,10,0,0,0,10-10V10A10,10,0,0,0,140,0Z"/><rect class="cls-1" y="226.5" width="150" height="25"/><circle class="cls-2" cx="83.31" cy="108.48" r="27.5" transform="translate(-53.16 117.69) rotate(-56.34)"/><rect class="cls-1" x="28.29" y="145.8" width="50.29" height="15" rx="5" ry="5" transform="translate(-103.78 112.81) rotate(-56.34)"/><rect class="cls-1" y="9.8" width="150" height="15"/></svg>